<svg id="visual1" viewBox="0 0 900 600" width="900" height="600" xmlns="http://www.w3.org/2000/svg" xmlns:xlink="http://www.w3.org/1999/xlink" version="1.1"><rect x="0" y="0" width="900" height="600" fill="#001220"></rect><defs><linearGradient id="grad1_0" x1="33.3%" y1="0%" x2="100%" y2="100%"><stop offset="20%" stop-color="#001220" stop-opacity="1"></stop><stop offset="80%" stop-color="#001220" stop-opacity="1"></stop></linearGradient></defs><defs><linearGradient id="grad2_0" x1="0%" y1="0%" x2="66.7%" y2="100%"><stop offset="20%" stop-color="#001220" stop-opacity="1"></stop><stop offset="80%" stop-color="#001220" stop-opacity="1"></stop></linearGradient></defs><g transform="translate(900, 0)"><path d="M0 486.7C-55 459.5 -110.1 432.3 -171.1 413C-232 393.7 -298.9 382.3 -344.2 344.2C-389.5 306.1 -413.1 241.3 -433.3 179.5C-453.5 117.7 -470.1 58.8 -486.7 0L0 0Z" fill="#FBAE3C"></path></g><g transform="translate(0, 600)"><path d="M0 -486.7C67 -475.7 133.9 -464.7 177.2 -427.8C220.4 -390.8 239.9 -327.9 287.8 -287.8C335.6 -247.7 411.8 -230.4 449.7 -186.3C487.6 -142.1 487.2 -71.1 486.7 0L0 0Z" fill="#FBAE3C"></path></g></svg>